<?xml version="1.0" encoding="utf-8"?>
<!-- Svg Vector Icons : http://www.onlinewebfonts.com/icon -->
<!DOCTYPE svg PUBLIC "-//W3C//DTD SVG 1.1//EN" "http://www.w3.org/Graphics/SVG/1.1/DTD/svg11.dtd">
<svg version="1.1" xmlns="http://www.w3.org/2000/svg" xmlns:xlink="http://www.w3.org/1999/xlink" x="0px" y="0px" viewBox="0 0 1000 1000" enable-background="new 0 0 1000 1000" xml:space="preserve">
<metadata> Svg Vector Icons : http://www.onlinewebfonts.com/icon </metadata>
<g><g transform="translate(0.000000,511.000000) scale(0.100000,-0.100000)"><path d="M4784.5,4442.5c-195.4-43.2-433.9-174.9-574.7-313.5c-93.1-95.4-313.5-456.6-1117.6-1844.6C2542.4,1335,1663.3-177.9,1140.8-1079.8c-842.8-1447-956.4-1656-997.2-1815c-52.2-199.9-54.5-293-22.7-467.9c56.8-297.6,281.7-604.3,545.2-745.1c270.3-145.4,61.3-138.6,4354.7-138.6c2812.3,0,3945.8,6.8,4032.1,25c529.3,113.6,910.9,645.1,838.2,1167.6c-13.6,93.2-40.9,211.3-63.6,265.8c-75,188.5-3918.6,6787.6-4018.5,6898.9C5556.9,4392.6,5145.7,4524.3,4784.5,4442.5z M5345.6,2745.6c249.9-56.8,661.1-308.9,867.8-531.6c93.1-100,177.2-306.7,215.8-527c36.3-211.3,27.3-329.4-50-686c-31.8-140.8-34.1-199.9-13.6-336.2c38.6-263.5,31.8-324.8-56.8-499.8c-90.9-186.3-154.5-245.3-284-265.8l-93.1-15.9l15.9-131.7c13.6-115.8,9.1-147.7-40.9-243.1c-31.8-59.1-97.7-197.6-149.9-304.4c-165.8-352.1-386.2-497.5-751.9-497.5c-365.7,0-583.8,145.4-751.9,497.5c-52.2,106.8-115.9,236.2-143.1,286.2c-27.3,54.5-52.3,152.2-59.1,238.5l-11.4,147.7l-102.2,36.4c-122.7,45.4-224.9,165.8-293,349.8c-43.2,111.3-45.4,145.4-25,268.1c34.1,211.3,27.3,354.4-25,577c-86.3,361.2-31.8,767.8,134,1013.1C4071.2,2616.2,4757.3,2881.9,5345.6,2745.6z M6981.2-968.5c31.8-20.4,68.2-54.5,84.1-72.7c34.1-45.4,38.6-181.7,6.8-263.5c-18.2-47.7-13.6-72.7,18.2-120.4c95.4-136.3,75-272.6-65.9-424.8c-109.1-118.1-172.7-136.3-333.9-93.1c-104.5,29.5-138.6,29.5-249.9,0c-140.8-36.4-547.5-165.8-583.8-186.3c-11.4-6.8,124.9-61.3,304.4-120.4l324.8-106.8l84.1,56.8c104.5,72.7,222.6,61.3,340.7-34.1c186.3-149.9,227.2-297.6,127.2-447.5l-59.1-84.1l75-115.8c170.4-265.8,31.8-538.4-272.6-538.4c-222.6,0-327.1,102.2-345.3,338.5l-11.4,147.7L6118-2901.6c-168.1,72.7-490.7,209-717.8,302.1L4989-2429.1l-440.7-179.4c-243.1-97.7-567.9-234-724.6-302.1l-281.7-122.7l-6.8-131.8c-9.1-227.2-131.7-354.4-340.7-354.4c-177.2,0-302.1,79.5-349.8,220.4c-34.1,104.5-11.4,204.4,72.7,331.7l68.1,102.2l-61.3,88.6c-84,124.9-68.1,252.1,50,372.5c159,161.3,288.5,193.1,424.8,102.2l79.5-54.5l324.9,106.8c179.5,59.1,315.8,113.6,304.4,120.4c-34.1,18.2-365.7,124.9-549.7,174.9c-147.7,40.9-174.9,40.9-281.7,13.6c-159-43.1-231.7-22.7-336.2,90.9c-140.8,152.2-161.3,288.5-65.9,424.8c31.8,47.7,36.3,72.7,18.2,120.4c-11.4,31.8-22.7,97.7-22.7,145.4c0,222.6,358.9,336.2,592.9,188.5c100-63.6,270.3-243.1,270.3-281.7c0-22.7,527-277.1,972.3-472.5l277.1-120.4l279.4,120.4c449.8,197.6,970,449.8,970,472.5c0,36.4,179.5,227.2,265.8,279.4C6645-882.1,6844.9-879.9,6981.2-968.5z"/><path d="M4323.4,1101c-68.1-34.1-149.9-72.7-179.5-86.3c-149.9-70.4-199.9-313.5-102.2-502c68.2-134,163.6-177.2,361.2-161.3c379.4,25,577,199.9,511.1,449.8c-38.6,147.7-120.4,256.7-231.7,311.2C4550.5,1173.7,4475.6,1171.4,4323.4,1101z"/><path d="M5293.4,1062.4c-159-97.7-247.6-295.3-190.8-429.3c47.7-113.6,245.4-279.4,368-311.2c311.2-77.2,629.2,238.5,533.8,531.6c-29.5,90.9-134,170.4-222.6,170.4c-29.5,0-79.5,20.4-111.3,45.4C5586.4,1135,5406.9,1130.5,5293.4,1062.4z"/><path d="M4879.9,405.8c-68.2-38.6-97.7-88.6-113.6-188.5c-6.8-50-31.8-138.6-52.2-197.6c-68.1-202.2,38.6-318,288.5-318c231.7,0,363.5,127.2,299.9,286.2c-15.9,38.6-43.2,131.8-59.1,206.7c-36.3,165.8-109,238.5-234,238.5C4964,433.1,4904.9,419.5,4879.9,405.8z"/><path d="M4659.6-509.6c-18.2-40.9-20.4-79.5-4.5-120.4l20.4-61.3l327.1-6.8C5361.5-705,5391-695.9,5391-580c0,120.4-22.7,127.2-379.4,127.2h-324.8L4659.6-509.6z"/></g></g>
</svg>